<?xml version="1.0" standalone="no"?>
<!DOCTYPE svg PUBLIC "-//W3C//DTD SVG 20010904//EN"
 "http://www.w3.org/TR/2001/REC-SVG-20010904/DTD/svg10.dtd">
<svg version="1.0" xmlns="http://www.w3.org/2000/svg"
 width="260.000000pt" height="260.000000pt" viewBox="0 0 260.000000 260.000000"
 preserveAspectRatio="xMidYMid meet">
<metadata>
Created by potrace 1.11, written by Peter Selinger 2001-2013
</metadata>
<g transform="translate(0.000000,260.000000) scale(0.100000,-0.100000)"
fill="#000000" stroke="none">
<path d="M1227 2464 c-3 -3 -29 -8 -59 -10 -50 -4 -93 -11 -93 -14 0 -1 -15
-3 -32 -4 -22 -3 -31 0 -26 8 4 6 -1 4 -11 -4 -10 -8 -28 -15 -39 -17 -12 -2
-29 -6 -37 -10 -14 -5 -40 -11 -67 -15 -7 -1 -13 -5 -13 -10 0 -5 -5 -6 -10
-3 -6 3 -13 -1 -16 -9 -3 -9 -10 -13 -15 -11 -5 3 -22 -1 -39 -10 -16 -8 -32
-16 -35 -16 -21 -3 -45 -13 -45 -18 0 -4 -17 -15 -37 -25 -45 -21 -147 -88
-151 -98 -2 -5 -10 -8 -18 -8 -9 0 -12 -4 -9 -10 3 -5 -6 -12 -20 -16 -13 -3
-23 -9 -22 -13 3 -6 -38 -49 -51 -53 -15 -4 -39 -44 -34 -57 2 -8 0 -11 -5 -8
-5 3 -10 -3 -10 -14 -1 -11 2 -17 7 -14 5 3 17 -4 27 -15 10 -12 37 -41 60
-65 24 -24 44 -49 45 -57 2 -7 13 -21 26 -31 12 -10 20 -23 16 -28 -3 -5 -2
-8 3 -7 4 1 27 -18 50 -42 92 -97 123 -131 123 -135 0 -7 -32 2 -38 11 -7 9
-27 16 -49 17 -7 0 -13 4 -13 9 0 5 -4 7 -9 4 -5 -4 -22 -1 -38 5 -15 6 -41
12 -57 14 -16 2 -32 9 -37 16 -7 11 -9 11 -9 1 0 -7 -5 -10 -11 -6 -12 7 -89
16 -159 18 -25 0 -48 6 -52 11 -5 6 -8 6 -8 -1 0 -7 -13 -10 -30 -9 -17 1 -29
1 -26 -2 5 -6 -37 -49 -45 -46 -3 1 -6 -5 -7 -13 -1 -8 -3 -21 -4 -29 -1 -8
-5 -15 -10 -15 -5 0 -7 -4 -3 -9 3 -5 1 -12 -5 -16 -6 -4 -8 -10 -5 -15 3 -5
0 -21 -6 -37 -6 -15 -13 -41 -16 -58 -2 -16 -6 -39 -8 -50 -2 -11 -4 -20 -5
-20 -4 0 -11 -61 -13 -112 -1 -29 -4 -53 -7 -53 -3 0 -5 -51 -4 -112 1 -62 3
-113 4 -113 7 0 6 -36 -1 -41 -6 -4 -6 -10 0 -18 5 -6 12 -29 15 -51 6 -45 12
-76 29 -150 14 -62 12 -57 20 -77 17 -45 20 -54 24 -73 5 -30 27 -75 35 -75 5
0 7 -3 7 -7 -1 -5 0 -11 1 -15 1 -5 3 -11 4 -15 1 -5 7 -18 14 -29 6 -12 8
-24 5 -28 -3 -3 -2 -6 3 -6 6 0 21 -22 35 -50 13 -27 27 -50 32 -50 4 0 7 -9
7 -20 0 -11 6 -20 13 -21 10 0 94 -92 116 -128 16 -25 57 16 82 81 12 33 22
67 22 74 0 8 3 14 7 14 6 0 10 16 11 53 0 9 5 17 10 17 6 0 8 4 5 8 -3 5 2 22
10 38 9 16 16 31 16 34 0 3 4 15 9 28 5 13 9 28 9 33 0 5 5 9 12 9 6 0 8 3 5
6 -3 4 2 18 13 32 11 13 18 28 15 32 -3 4 2 10 10 14 8 3 15 12 15 21 0 8 5
15 10 15 6 0 10 7 10 15 0 8 7 15 16 15 8 0 13 4 10 9 -3 5 7 22 23 39 16 17
27 33 24 36 -4 3 0 6 8 6 8 0 21 8 30 18 29 33 92 82 99 77 4 -3 10 2 14 10 3
8 12 15 21 15 8 0 15 5 15 12 0 6 3 8 7 5 3 -4 12 -2 19 3 6 6 22 13 34 15 31
6 34 10 36 58 1 23 7 57 12 75 6 17 8 32 6 32 -3 0 2 7 10 16 9 8 14 20 11 25
-4 5 -1 9 5 9 6 0 14 8 17 18 8 20 63 77 63 65 0 -4 5 0 10 9 6 9 24 19 40 23
17 4 30 10 30 15 0 14 153 3 184 -14 16 -8 34 -13 38 -10 5 3 17 -4 28 -16 10
-12 20 -20 22 -19 2 2 15 -9 30 -24 15 -15 25 -27 22 -27 -3 0 4 -13 15 -29
12 -16 21 -34 21 -40 0 -6 3 -11 8 -11 7 0 10 -24 16 -104 1 -24 8 -41 17 -44
29 -9 85 -36 112 -54 15 -11 27 -17 27 -15 0 6 55 -40 106 -89 18 -17 30 -34
27 -38 -4 -3 1 -6 10 -6 10 0 17 -4 17 -8 0 -5 8 -17 18 -28 33 -38 64 -86 58
-91 -3 -4 3 -13 15 -21 11 -7 18 -19 16 -25 -2 -6 5 -20 15 -31 10 -11 18 -26
18 -33 0 -7 8 -32 19 -56 19 -42 41 -114 48 -152 8 -46 49 -126 72 -141 23
-16 25 -15 38 2 44 63 80 104 96 109 9 4 15 11 12 16 -4 5 1 12 9 15 9 3 13
10 10 15 -3 5 0 9 5 9 6 0 11 7 11 15 0 9 9 25 20 37 10 12 17 25 14 30 -3 4
-2 8 3 8 9 0 25 33 44 90 7 19 18 44 25 55 7 11 13 22 13 25 0 6 6 27 17 55 4
11 8 26 10 33 1 8 6 21 10 30 4 9 8 26 10 37 1 11 6 34 10 50 3 17 8 39 9 50
2 11 4 20 5 20 3 0 8 30 15 100 9 83 13 265 6 265 -3 0 -7 26 -8 58 -1 49 -8
107 -13 107 -1 0 -3 14 -6 30 -5 41 -12 80 -14 80 -2 0 -6 16 -14 50 -2 11 -5
21 -6 23 -2 1 -3 5 -4 10 -16 74 -57 122 -107 125 -19 1 -37 6 -41 12 -5 7 -8
6 -8 -1 0 -6 -22 -10 -55 -9 -30 0 -55 -2 -55 -6 0 -3 -14 -5 -30 -4 -17 1
-33 -2 -36 -6 -2 -4 -16 -6 -29 -3 -14 2 -25 0 -25 -5 0 -5 -8 -8 -17 -7 -10
2 -32 -3 -49 -10 -17 -7 -34 -10 -38 -7 -3 4 -6 0 -6 -8 0 -11 -2 -11 -10 1
-6 10 -10 11 -10 3 0 -7 -11 -13 -24 -13 -13 0 -26 -7 -30 -15 -3 -8 -13 -15
-23 -15 -14 0 -15 2 -4 9 7 5 11 13 8 18 -4 6 5 16 18 23 14 7 25 16 25 20 0
3 35 42 78 86 42 43 77 84 77 91 0 6 22 32 48 56 26 25 47 48 47 52 0 10 27
35 39 35 17 0 13 19 -11 53 -21 30 -32 40 -98 96 -14 12 -36 30 -48 41 -13 11
-30 20 -38 20 -8 0 -14 7 -14 15 0 8 -3 14 -7 14 -19 -3 -36 2 -30 8 6 5 -48
35 -81 44 -4 2 -13 9 -20 16 -7 7 -20 13 -28 13 -8 0 -14 5 -14 12 0 6 -3 8
-7 5 -3 -4 -12 -2 -20 4 -7 6 -13 9 -13 5 0 -3 -16 3 -35 14 -20 11 -44 20
-55 20 -10 0 -21 4 -24 9 -3 4 -25 12 -48 16 -24 4 -50 10 -58 12 -8 2 -22 4
-30 4 -8 1 -22 3 -30 7 -8 3 -24 6 -35 7 -11 1 -49 5 -85 10 -89 11 -170 12
-170 1 0 -5 -6 -3 -13 3 -8 6 -16 8 -20 5z"/>
</g>
</svg>
